
<global>
ampeg_attack=0.001
ampeg_release=1.25
</global>

<group>
ampeg_attack=0.005
color=red
group_label=Main_Hits_RR1
seq_length=4
seq_position=1

<region>
hivel=45
key=D3
lovel=0
offset=3119
sample=SnareLine_SnaresOn_Sticks_Hits_P_D3_RR1.opus
xf_velcurve=gain
xfout_hivel=45
xfout_lovel=25
</region>

<region>
hivel=70
key=D3
lovel=5
offset=2422
sample=SnareLine_SnaresOn_Sticks_Hits_MP_D3_RR1.opus
xf_velcurve=gain
xfin_hivel=25
xfin_lovel=5
xfout_hivel=70
xfout_lovel=50
</region>

<region>
hivel=95
key=D3
lovel=30
offset=1988
sample=SnareLine_SnaresOn_Sticks_Hits_MF_D3_RR1.opus
xf_velcurve=gain
xfin_hivel=50
xfin_lovel=30
xfout_hivel=95
xfout_lovel=75
</region>

<region>
hivel=127
key=D3
lovel=80
offset=1632
sample=SnareLine_SnaresOn_Sticks_Hits_FF_D3_RR1.opus
xf_velcurve=gain
xfin_hivel=100
xfin_lovel=80
</region>

<region>
hivel=120
key=D3
lovel=55
offset=1524
sample=SnareLine_SnaresOn_Sticks_Hits_F_D3_RR1.opus
xf_velcurve=gain
xfin_hivel=75
xfin_lovel=55
xfout_hivel=120
xfout_lovel=100
</region>

<region>
hivel=45
key=D#3
lovel=0
offset=2519
sample=SnareLine_SnaresOn_Sticks_Halfway_Hits_P_D3_RR1.opus
xf_velcurve=gain
xfout_hivel=45
xfout_lovel=25
</region>

<region>
hivel=70
key=D#3
lovel=5
offset=2515
sample=SnareLine_SnaresOn_Sticks_Halfway_Hits_MP_D3_RR1.opus
xf_velcurve=gain
xfin_hivel=25
xfin_lovel=5
xfout_hivel=70
xfout_lovel=50
</region>

<region>
hivel=95
key=D#3
lovel=30
offset=1808
sample=SnareLine_SnaresOn_Sticks_Halfway_Hits_MF_D3_RR1.opus
xf_velcurve=gain
xfin_hivel=50
xfin_lovel=30
xfout_hivel=95
xfout_lovel=75
</region>

<region>
hivel=127
key=D#3
lovel=80
offset=1972
sample=SnareLine_SnaresOn_Sticks_Halfway_Hits_FF_D3_RR1.opus
xf_velcurve=gain
xfin_hivel=100
xfin_lovel=80
</region>

<region>
hivel=120
key=D#3
lovel=55
offset=2210
sample=SnareLine_SnaresOn_Sticks_Halfway_Hits_F_D3_RR1.opus
xf_velcurve=gain
xfin_hivel=75
xfin_lovel=55
xfout_hivel=120
xfout_lovel=100
</region>

<region>
hivel=45
key=E3
lovel=0
offset=4633
sample=SnareLine_SnaresOn_Sticks_Edge_Hits_P_D3_RR1.opus
xf_velcurve=gain
xfout_hivel=45
xfout_lovel=25
</region>

<region>
hivel=70
key=E3
lovel=5
offset=2128
sample=SnareLine_SnaresOn_Sticks_Edge_Hits_MP_D3_RR1.opus
xf_velcurve=gain
xfin_hivel=25
xfin_lovel=5
xfout_hivel=70
xfout_lovel=50
</region>

<region>
hivel=95
key=E3
lovel=30
offset=2634
sample=SnareLine_SnaresOn_Sticks_Edge_Hits_MF_D3_RR1.opus
xf_velcurve=gain
xfin_hivel=50
xfin_lovel=30
xfout_hivel=95
xfout_lovel=75
</region>

<region>
hivel=127
key=E3
lovel=80
offset=3426
sample=SnareLine_SnaresOn_Sticks_Edge_Hits_FF_D3_RR1.opus
xf_velcurve=gain
xfin_hivel=100
xfin_lovel=80
</region>

<region>
hivel=120
key=E3
lovel=55
offset=1041
sample=SnareLine_SnaresOn_Sticks_Edge_Hits_F_D3_RR1.opus
xf_velcurve=gain
xfin_hivel=75
xfin_lovel=55
xfout_hivel=120
xfout_lovel=100
</region>
</group>

<group>
ampeg_attack=0.005
color=red
group_label=Main_Hits_RR3
seq_length=4
seq_position=2

<region>
hivel=45
key=D3
lovel=0
offset=2751
sample=SnareLine_SnaresOn_Sticks_Hits_P_D3_RR3.opus
xf_velcurve=gain
xfout_hivel=45
xfout_lovel=25
</region>

<region>
hivel=70
key=D3
lovel=5
offset=2239
sample=SnareLine_SnaresOn_Sticks_Hits_MP_D3_RR3.opus
xf_velcurve=gain
xfin_hivel=25
xfin_lovel=5
xfout_hivel=70
xfout_lovel=50
</region>

<region>
hivel=95
key=D3
lovel=30
offset=2529
sample=SnareLine_SnaresOn_Sticks_Hits_MF_D3_RR3.opus
xf_velcurve=gain
xfin_hivel=50
xfin_lovel=30
xfout_hivel=95
xfout_lovel=75
</region>

<region>
hivel=127
key=D3
lovel=80
offset=1731
sample=SnareLine_SnaresOn_Sticks_Hits_FF_D3_RR3.opus
xf_velcurve=gain
xfin_hivel=100
xfin_lovel=80
</region>

<region>
hivel=120
key=D3
lovel=55
offset=1820
sample=SnareLine_SnaresOn_Sticks_Hits_F_D3_RR3.opus
xf_velcurve=gain
xfin_hivel=75
xfin_lovel=55
xfout_hivel=120
xfout_lovel=100
</region>

<region>
hivel=45
key=D#3
lovel=0
offset=1478
sample=SnareLine_SnaresOn_Sticks_Halfway_Hits_P_D3_RR3.opus
xf_velcurve=gain
xfout_hivel=45
xfout_lovel=25
</region>

<region>
hivel=70
key=D#3
lovel=5
offset=1696
sample=SnareLine_SnaresOn_Sticks_Halfway_Hits_MP_D3_RR3.opus
xf_velcurve=gain
xfin_hivel=25
xfin_lovel=5
xfout_hivel=70
xfout_lovel=50
</region>

<region>
hivel=95
key=D#3
lovel=30
offset=1684
sample=SnareLine_SnaresOn_Sticks_Halfway_Hits_MF_D3_RR3.opus
xf_velcurve=gain
xfin_hivel=50
xfin_lovel=30
xfout_hivel=95
xfout_lovel=75
</region>

<region>
hivel=127
key=D#3
lovel=80
offset=1837
sample=SnareLine_SnaresOn_Sticks_Halfway_Hits_FF_D3_RR3.opus
xf_velcurve=gain
xfin_hivel=100
xfin_lovel=80
</region>

<region>
hivel=120
key=D#3
lovel=55
offset=1259
sample=SnareLine_SnaresOn_Sticks_Halfway_Hits_F_D3_RR3.opus
xf_velcurve=gain
xfin_hivel=75
xfin_lovel=55
xfout_hivel=120
xfout_lovel=100
</region>

<region>
hivel=45
key=E3
lovel=0
offset=4250
sample=SnareLine_SnaresOn_Sticks_Edge_Hits_P_D3_RR3.opus
xf_velcurve=gain
xfout_hivel=45
xfout_lovel=25
</region>

<region>
hivel=70
key=E3
lovel=5
offset=4959
sample=SnareLine_SnaresOn_Sticks_Edge_Hits_MP_D3_RR3.opus
xf_velcurve=gain
xfin_hivel=25
xfin_lovel=5
xfout_hivel=70
xfout_lovel=50
</region>

<region>
hivel=95
key=E3
lovel=30
offset=2249
sample=SnareLine_SnaresOn_Sticks_Edge_Hits_MF_D3_RR3.opus
xf_velcurve=gain
xfin_hivel=50
xfin_lovel=30
xfout_hivel=95
xfout_lovel=75
</region>

<region>
hivel=127
key=E3
lovel=80
offset=1741
sample=SnareLine_SnaresOn_Sticks_Edge_Hits_FF_D3_RR3.opus
xf_velcurve=gain
xfin_hivel=100
xfin_lovel=80
</region>

<region>
hivel=120
key=E3
lovel=55
offset=1246
sample=SnareLine_SnaresOn_Sticks_Edge_Hits_F_D3_RR3.opus
xf_velcurve=gain
xfin_hivel=75
xfin_lovel=55
xfout_hivel=120
xfout_lovel=100
</region>
</group>

<group>
ampeg_attack=0.005
color=red
group_label=Main_Hits_RR5
seq_length=4
seq_position=3

<region>
hivel=45
key=D3
lovel=0
offset=2862
sample=SnareLine_SnaresOn_Sticks_Hits_P_D3_RR5.opus
xf_velcurve=gain
xfout_hivel=45
xfout_lovel=25
</region>

<region>
hivel=70
key=D3
lovel=5
offset=2521
sample=SnareLine_SnaresOn_Sticks_Hits_MP_D3_RR5.opus
xf_velcurve=gain
xfin_hivel=25
xfin_lovel=5
xfout_hivel=70
xfout_lovel=50
</region>

<region>
hivel=95
key=D3
lovel=30
offset=1280
sample=SnareLine_SnaresOn_Sticks_Hits_MF_D3_RR5.opus
xf_velcurve=gain
xfin_hivel=50
xfin_lovel=30
xfout_hivel=95
xfout_lovel=75
</region>

<region>
hivel=127
key=D3
lovel=80
offset=1861
sample=SnareLine_SnaresOn_Sticks_Hits_FF_D3_RR5.opus
xf_velcurve=gain
xfin_hivel=100
xfin_lovel=80
</region>

<region>
hivel=120
key=D3
lovel=55
offset=686
sample=SnareLine_SnaresOn_Sticks_Hits_F_D3_RR5.opus
xf_velcurve=gain
xfin_hivel=75
xfin_lovel=55
xfout_hivel=120
xfout_lovel=100
</region>

<region>
hivel=45
key=D#3
lovel=0
offset=1907
sample=SnareLine_SnaresOn_Sticks_Halfway_Hits_P_D3_RR5.opus
xf_velcurve=gain
xfout_hivel=45
xfout_lovel=25
</region>

<region>
hivel=70
key=D#3
lovel=5
offset=2397
sample=SnareLine_SnaresOn_Sticks_Halfway_Hits_MP_D3_RR5.opus
xf_velcurve=gain
xfin_hivel=25
xfin_lovel=5
xfout_hivel=70
xfout_lovel=50
</region>

<region>
hivel=95
key=D#3
lovel=30
offset=1685
sample=SnareLine_SnaresOn_Sticks_Halfway_Hits_MF_D3_RR5.opus
xf_velcurve=gain
xfin_hivel=50
xfin_lovel=30
xfout_hivel=95
xfout_lovel=75
</region>

<region>
hivel=127
key=D#3
lovel=80
offset=2547
sample=SnareLine_SnaresOn_Sticks_Halfway_Hits_FF_D3_RR5.opus
xf_velcurve=gain
xfin_hivel=100
xfin_lovel=80
</region>

<region>
hivel=120
key=D#3
lovel=55
offset=1734
sample=SnareLine_SnaresOn_Sticks_Halfway_Hits_F_D3_RR5.opus
xf_velcurve=gain
xfin_hivel=75
xfin_lovel=55
xfout_hivel=120
xfout_lovel=100
</region>

<region>
hivel=45
key=E3
lovel=0
offset=4144
sample=SnareLine_SnaresOn_Sticks_Edge_Hits_P_D3_RR5.opus
xf_velcurve=gain
xfout_hivel=45
xfout_lovel=25
</region>

<region>
hivel=70
key=E3
lovel=5
offset=2776
sample=SnareLine_SnaresOn_Sticks_Edge_Hits_MP_D3_RR5.opus
xf_velcurve=gain
xfin_hivel=25
xfin_lovel=5
xfout_hivel=70
xfout_lovel=50
</region>

<region>
hivel=95
key=E3
lovel=30
offset=2040
sample=SnareLine_SnaresOn_Sticks_Edge_Hits_MF_D3_RR5.opus
xf_velcurve=gain
xfin_hivel=50
xfin_lovel=30
xfout_hivel=95
xfout_lovel=75
</region>

<region>
hivel=127
key=E3
lovel=80
offset=1658
sample=SnareLine_SnaresOn_Sticks_Edge_Hits_FF_D3_RR5.opus
xf_velcurve=gain
xfin_hivel=100
xfin_lovel=80
</region>

<region>
hivel=120
key=E3
lovel=55
offset=2067
sample=SnareLine_SnaresOn_Sticks_Edge_Hits_F_D3_RR5.opus
xf_velcurve=gain
xfin_hivel=75
xfin_lovel=55
xfout_hivel=120
xfout_lovel=100
</region>
</group>

<group>
ampeg_attack=0.005
color=red
group_label=Main_Hits_RR7
seq_length=4
seq_position=4

<region>
hivel=45
key=D3
lovel=0
offset=1546
sample=SnareLine_SnaresOn_Sticks_Hits_P_D3_RR7.opus
xf_velcurve=gain
xfout_hivel=45
xfout_lovel=25
</region>

<region>
hivel=70
key=D3
lovel=5
offset=2373
sample=SnareLine_SnaresOn_Sticks_Hits_MP_D3_RR7.opus
xf_velcurve=gain
xfin_hivel=25
xfin_lovel=5
xfout_hivel=70
xfout_lovel=50
</region>

<region>
hivel=95
key=D3
lovel=30
offset=2502
sample=SnareLine_SnaresOn_Sticks_Hits_MF_D3_RR7.opus
xf_velcurve=gain
xfin_hivel=50
xfin_lovel=30
xfout_hivel=95
xfout_lovel=75
</region>

<region>
hivel=127
key=D3
lovel=80
offset=1704
sample=SnareLine_SnaresOn_Sticks_Hits_FF_D3_RR7.opus
xf_velcurve=gain
xfin_hivel=100
xfin_lovel=80
</region>

<region>
hivel=120
key=D3
lovel=55
offset=1610
sample=SnareLine_SnaresOn_Sticks_Hits_F_D3_RR7.opus
xf_velcurve=gain
xfin_hivel=75
xfin_lovel=55
xfout_hivel=120
xfout_lovel=100
</region>

<region>
hivel=45
key=D#3
lovel=0
offset=1999
sample=SnareLine_SnaresOn_Sticks_Halfway_Hits_P_D3_RR7.opus
xf_velcurve=gain
xfout_hivel=45
xfout_lovel=25
</region>

<region>
hivel=70
key=D#3
lovel=5
offset=1944
sample=SnareLine_SnaresOn_Sticks_Halfway_Hits_MP_D3_RR7.opus
xf_velcurve=gain
xfin_hivel=25
xfin_lovel=5
xfout_hivel=70
xfout_lovel=50
</region>

<region>
hivel=95
key=D#3
lovel=30
offset=2043
sample=SnareLine_SnaresOn_Sticks_Halfway_Hits_MF_D3_RR7.opus
xf_velcurve=gain
xfin_hivel=50
xfin_lovel=30
xfout_hivel=95
xfout_lovel=75
</region>

<region>
hivel=127
key=D#3
lovel=80
offset=1173
sample=SnareLine_SnaresOn_Sticks_Halfway_Hits_FF_D3_RR7.opus
xf_velcurve=gain
xfin_hivel=100
xfin_lovel=80
</region>

<region>
hivel=120
key=D#3
lovel=55
offset=1945
sample=SnareLine_SnaresOn_Sticks_Halfway_Hits_F_D3_RR7.opus
xf_velcurve=gain
xfin_hivel=75
xfin_lovel=55
xfout_hivel=120
xfout_lovel=100
</region>

<region>
hivel=45
key=E3
lovel=0
offset=3657
sample=SnareLine_SnaresOn_Sticks_Edge_Hits_P_D3_RR7.opus
xf_velcurve=gain
xfout_hivel=45
xfout_lovel=25
</region>

<region>
hivel=70
key=E3
lovel=5
offset=2758
sample=SnareLine_SnaresOn_Sticks_Edge_Hits_MP_D3_RR7.opus
xf_velcurve=gain
xfin_hivel=25
xfin_lovel=5
xfout_hivel=70
xfout_lovel=50
</region>

<region>
hivel=95
key=E3
lovel=30
offset=2867
sample=SnareLine_SnaresOn_Sticks_Edge_Hits_MF_D3_RR7.opus
xf_velcurve=gain
xfin_hivel=50
xfin_lovel=30
xfout_hivel=95
xfout_lovel=75
</region>

<region>
hivel=127
key=E3
lovel=80
offset=1551
sample=SnareLine_SnaresOn_Sticks_Edge_Hits_FF_D3_RR7.opus
xf_velcurve=gain
xfin_hivel=100
xfin_lovel=80
</region>

<region>
hivel=120
key=E3
lovel=55
offset=1482
sample=SnareLine_SnaresOn_Sticks_Edge_Hits_F_D3_RR7.opus
xf_velcurve=gain
xfin_hivel=75
xfin_lovel=55
xfout_hivel=120
xfout_lovel=100
</region>
</group>

<group>
color=green
group_label=Alt_Hits_RR1
seq_length=2
seq_position=1

<region>
hivel=25
key=D4
lovel=0
offset=1890
sample=SnareLine_SnaresOn_Sticks_Rim_Hit_P_D3_RR1.opus
</region>

<region>
hivel=50
key=D4
lovel=26
offset=1881
sample=SnareLine_SnaresOn_Sticks_Rim_Hit_MP_D3_RR1.opus
</region>

<region>
hivel=75
key=D4
lovel=51
offset=836
sample=SnareLine_SnaresOn_Sticks_Rim_Hit_MF_D3_RR1.opus
</region>

<region>
hivel=127
key=D4
lovel=101
offset=684
sample=SnareLine_SnaresOn_Sticks_Rim_Hit_FF_D3_RR1.opus
</region>

<region>
hivel=25
key=D#4
lovel=0
offset=2224
sample=SnareLine_SnaresOn_Sticks_Shell_Hit_P_D3_RR1.opus
</region>

<region>
hivel=50
key=D#4
lovel=26
offset=825
sample=SnareLine_SnaresOn_Sticks_Shell_Hit_MP_D3_RR1.opus
</region>

<region>
hivel=75
key=D#4
lovel=51
offset=2177
sample=SnareLine_SnaresOn_Sticks_Shell_Hit_MF_D3_RR1.opus
</region>

<region>
hivel=127
key=D#4
lovel=76
offset=1138
sample=SnareLine_SnaresOn_Sticks_Shell_Hit_FF_D3_RR1.opus
</region>

<region>
hivel=25
key=E4
lovel=0
offset=3710
sample=SnareLine_SnaresOn_Sticks_Buzz_Stroke_P_D3_RR1.opus
</region>

<region>
hivel=50
key=E4
lovel=26
offset=3727
sample=SnareLine_SnaresOn_Sticks_Buzz_Stroke_MP_D3_RR1.opus
</region>

<region>
hivel=75
key=E4
lovel=51
offset=3864
sample=SnareLine_SnaresOn_Sticks_Buzz_Stroke_MF_D3_RR1.opus
</region>

<region>
hivel=127
key=E4
lovel=101
offset=1555
sample=SnareLine_SnaresOn_Sticks_Buzz_Stroke_FF_D3_RR1.opus
</region>

<region>
hivel=100
key=E4
lovel=76
offset=2546
sample=SnareLine_SnaresOn_Sticks_Buzz_Stroke_F_D3_RR1.opus
</region>

<region>
hivel=25
key=F4
lovel=0
offset=2717
sample=SnareLine_SnaresOn_Sticks_Dry_Buzz_Stroke_P_D3_RR1.opus
</region>

<region>
hivel=50
key=F4
lovel=26
offset=2621
sample=SnareLine_SnaresOn_Sticks_Dry_Buzz_Stroke_MP_D3_RR1.opus
</region>

<region>
hivel=75
key=F4
lovel=51
offset=3357
sample=SnareLine_SnaresOn_Sticks_Dry_Buzz_Stroke_MF_D3_RR1.opus
</region>

<region>
hivel=127
key=F4
lovel=101
offset=1937
sample=SnareLine_SnaresOn_Sticks_Dry_Buzz_Stroke_FF_D3_RR1.opus
</region>

<region>
hivel=100
key=F4
lovel=76
offset=2156
sample=SnareLine_SnaresOn_Sticks_Dry_Buzz_Stroke_F_D3_RR1.opus
</region>

<region>
hivel=25
key=F#4
lovel=0
offset=5890
sample=SnareLine_SnaresOn_Sticks_Edge_Buzz_Stroke_P_D3_RR1.opus
</region>

<region>
hivel=50
key=F#4
lovel=26
offset=4504
sample=SnareLine_SnaresOn_Sticks_Edge_Buzz_Stroke_MP_D3_RR1.opus
</region>

<region>
hivel=75
key=F#4
lovel=51
offset=2799
sample=SnareLine_SnaresOn_Sticks_Edge_Buzz_Stroke_MF_D3_RR1.opus
</region>

<region>
hivel=127
key=F#4
lovel=101
offset=3311
sample=SnareLine_SnaresOn_Sticks_Edge_Buzz_Stroke_FF_D3_RR1.opus
</region>

<region>
hivel=100
key=F#4
lovel=76
offset=2337
sample=SnareLine_SnaresOn_Sticks_Edge_Buzz_Stroke_F_D3_RR1.opus
</region>

<region>
hivel=50
key=G4
lovel=26
offset=2846
sample=SnareLine_SnaresOn_Sticks_Edge_Dry_Buzz_Stroke_MP_D3_RR1.opus
</region>

<region>
hivel=75
key=G4
lovel=51
offset=3871
sample=SnareLine_SnaresOn_Sticks_Edge_Dry_Buzz_Stroke_MF_D3_RR1.opus
</region>

<region>
hivel=127
key=G4
lovel=101
offset=4573
sample=SnareLine_SnaresOn_Sticks_Edge_Dry_Buzz_Stroke_FF_D3_RR1.opus
</region>

<region>
hivel=100
key=G4
lovel=76
offset=4211
sample=SnareLine_SnaresOn_Sticks_Edge_Dry_Buzz_Stroke_F_D3_RR1.opus
</region>

<region>
hivel=25
key=G#4
lovel=0
offset=6101
sample=SnareLine_SnaresOn_Sticks_Halfway_Buzz_Stroke_P_D3_RR1.opus
</region>

<region>
hivel=50
key=G#4
lovel=26
offset=5673
sample=SnareLine_SnaresOn_Sticks_Halfway_Buzz_Stroke_MP_D3_RR1.opus
</region>

<region>
hivel=75
key=G#4
lovel=51
offset=3575
sample=SnareLine_SnaresOn_Sticks_Halfway_Buzz_Stroke_MF_D3_RR1.opus
</region>

<region>
hivel=127
key=G#4
lovel=101
offset=624
sample=SnareLine_SnaresOn_Sticks_Halfway_Buzz_Stroke_FF_D3_RR1.opus
</region>

<region>
hivel=100
key=G#4
lovel=76
offset=2781
sample=SnareLine_SnaresOn_Sticks_Halfway_Buzz_Stroke_F_D3_RR1.opus
</region>

<region>
hivel=25
key=A4
lovel=0
offset=4508
sample=SnareLine_SnaresOn_Sticks_Halfway_Dry_Buzz_Stroke_P_D3_RR1.opus
</region>

<region>
hivel=50
key=A4
lovel=26
offset=5252
sample=SnareLine_SnaresOn_Sticks_Halfway_Dry_Buzz_Stroke_MP_D3_RR1.opus
</region>

<region>
hivel=75
key=A4
lovel=51
offset=5013
sample=SnareLine_SnaresOn_Sticks_Halfway_Dry_Buzz_Stroke_MF_D3_RR1.opus
</region>

<region>
hivel=127
key=A4
lovel=101
offset=2990
sample=SnareLine_SnaresOn_Sticks_Halfway_Dry_Buzz_Stroke_FF_D3_RR1.opus
</region>

<region>
hivel=100
key=A4
lovel=76
offset=3382
sample=SnareLine_SnaresOn_Sticks_Halfway_Dry_Buzz_Stroke_F_D3_RR1.opus
</region>

<region>
hivel=25
key=D5
lovel=0
offset=2769
sample=SnareLine_SnaresOn_Sticks_Stick_Shot_P_D3_RR1.opus
</region>

<region>
hivel=50
key=D5
lovel=26
offset=2536
sample=SnareLine_SnaresOn_Sticks_Stick_Shot_MP_D3_RR1.opus
</region>

<region>
hivel=75
key=D5
lovel=51
offset=1716
sample=SnareLine_SnaresOn_Sticks_Stick_Shot_MF_D3_RR1.opus
</region>

<region>
hivel=127
key=D5
lovel=101
offset=1954
sample=SnareLine_SnaresOn_Sticks_Stick_Shot_FF_D3_RR1.opus
</region>

<region>
hivel=100
key=D5
lovel=76
offset=2804
sample=SnareLine_SnaresOn_Sticks_Stick_Shot_F_D3_RR1.opus
</region>

<region>
hivel=25
key=D#5
lovel=0
offset=5286
sample=SnareLine_SnaresOn_Sticks_Rim_Knock_P_D3_RR1.opus
</region>

<region>
hivel=50
key=D#5
lovel=26
offset=2418
sample=SnareLine_SnaresOn_Sticks_Rim_Knock_MP_D3_RR1.opus
</region>

<region>
hivel=75
key=D#5
lovel=51
offset=1694
sample=SnareLine_SnaresOn_Sticks_Rim_Knock_MF_D3_RR1.opus
</region>

<region>
hivel=127
key=D#5
lovel=101
offset=1767
sample=SnareLine_SnaresOn_Sticks_Rim_Knock_FF_D3_RR1.opus
</region>

<region>
hivel=100
key=D#5
lovel=76
offset=2159
sample=SnareLine_SnaresOn_Sticks_Rim_Knock_F_D3_RR1.opus
</region>

<region>
hivel=25
key=E5
lovel=0
offset=1526
sample=SnareLine_SnaresOn_Sticks_Ping_Shot_P_D3_RR1.opus
</region>

<region>
hivel=50
key=E5
lovel=26
offset=694
sample=SnareLine_SnaresOn_Sticks_Ping_Shot_MP_D3_RR1.opus
</region>

<region>
hivel=75
key=E5
lovel=51
offset=696
sample=SnareLine_SnaresOn_Sticks_Ping_Shot_MF_D3_RR1.opus
</region>

<region>
hivel=127
key=E5
lovel=101
offset=1025
sample=SnareLine_SnaresOn_Sticks_Ping_Shot_FF_D3_RR1.opus
</region>

<region>
hivel=100
key=E5
lovel=76
offset=762
sample=SnareLine_SnaresOn_Sticks_Ping_Shot_F_D3_RR1.opus
</region>

<region>
hivel=25
key=F5
lovel=0
offset=3823
sample=SnareLine_SnaresOn_Sticks_Shoulder_Shot_P_D3_RR1.opus
</region>

<region>
hivel=50
key=F5
lovel=26
offset=1313
sample=SnareLine_SnaresOn_Sticks_Shoulder_Shot_MP_D3_RR1.opus
</region>

<region>
hivel=75
key=F5
lovel=51
offset=1211
sample=SnareLine_SnaresOn_Sticks_Shoulder_Shot_MF_D3_RR1.opus
</region>

<region>
hivel=127
key=F5
lovel=101
offset=1548
sample=SnareLine_SnaresOn_Sticks_Shoulder_Shot_FF_D3_RR1.opus
</region>

<region>
hivel=25
key=F#5
lovel=0
offset=619
sample=SnareLine_SnaresOn_Sticks_Gok_Shot_P_D3_RR1.opus
</region>

<region>
hivel=50
key=F#5
lovel=26
offset=818
sample=SnareLine_SnaresOn_Sticks_Gok_Shot_MP_D3_RR1.opus
</region>

<region>
hivel=75
key=F#5
lovel=51
offset=1122
sample=SnareLine_SnaresOn_Sticks_Gok_Shot_MF_D3_RR1.opus
</region>

<region>
hivel=127
key=F#5
lovel=101
offset=607
sample=SnareLine_SnaresOn_Sticks_Gok_Shot_FF_D3_RR1.opus
</region>

<region>
hivel=100
key=F#5
lovel=76
offset=1216
sample=SnareLine_SnaresOn_Sticks_Gok_Shot_F_D3_RR1.opus
</region>

<region>
hivel=25
key=D6
lovel=0
offset=1829
sample=SnareLine_SnaresOn_Sticks_Backstick_P_D3_RR1.opus
volume=15
</region>

<region>
hivel=50
key=D6
lovel=26
offset=2050
sample=SnareLine_SnaresOn_Sticks_Backstick_MP_D3_RR1.opus
volume=15
</region>

<region>
hivel=75
key=D6
lovel=51
offset=1675
sample=SnareLine_SnaresOn_Sticks_Backstick_MF_D3_RR1.opus
volume=15
</region>

<region>
hivel=127
key=D6
lovel=101
offset=740
sample=SnareLine_SnaresOn_Sticks_Backstick_FF_D3_RR1.opus
volume=15
</region>

<region>
hivel=100
key=D6
lovel=76
offset=2483
sample=SnareLine_SnaresOn_Sticks_Backstick_F_D3_RR1.opus
volume=15
</region>

<region>
hivel=100
key=F5
lovel=76
offset=573
sample=SnareLine_SnaresOn_Sticks_Shoulder_Shot_F_D3_RR3.opus
</region>

<region>
hivel=75
key=D5
lovel=51
offset=1747
sample=SnareLine_SnaresOn_Sticks_Stick_Shot_MF_D3_RR1.opus
</region>

<region>
hivel=100
key=D#4
lovel=76
offset=751
sample=SnareLine_SnaresOn_Sticks_Shell_Hit_F_D3_RR3.opus
</region>

<region>
hivel=25
key=G4
lovel=0
offset=3521
sample=SnareLine_SnaresOn_Sticks_Edge_Dry_Buzz_Stroke_P_D3_RR3.opus
</region>
</group>

<group>
color=green
group_label=Alt_Hits_RR3
seq_length=2
seq_position=2

<region>
hivel=25
key=D4
lovel=0
offset=850
sample=SnareLine_SnaresOn_Sticks_Rim_Hit_P_D3_RR3.opus
</region>

<region>
hivel=50
key=D4
lovel=26
offset=1990
sample=SnareLine_SnaresOn_Sticks_Rim_Hit_MP_D3_RR3.opus
</region>

<region>
hivel=75
key=D4
lovel=51
offset=730
sample=SnareLine_SnaresOn_Sticks_Rim_Hit_MF_D3_RR3.opus
</region>

<region>
hivel=127
key=D4
lovel=101
offset=2139
sample=SnareLine_SnaresOn_Sticks_Rim_Hit_FF_D3_RR3.opus
</region>

<region>
hivel=100
key=D4
lovel=76
offset=796
sample=SnareLine_SnaresOn_Sticks_Rim_Hit_F_D3_RR3.opus
</region>

<region>
hivel=25
key=D#4
lovel=0
offset=1512
sample=SnareLine_SnaresOn_Sticks_Shell_Hit_P_D3_RR3.opus
</region>

<region>
hivel=50
key=D#4
lovel=26
offset=2225
sample=SnareLine_SnaresOn_Sticks_Shell_Hit_MP_D3_RR3.opus
</region>

<region>
hivel=75
key=D#4
lovel=51
offset=2364
sample=SnareLine_SnaresOn_Sticks_Shell_Hit_MF_D3_RR3.opus
</region>

<region>
hivel=127
key=D#4
lovel=101
offset=692
sample=SnareLine_SnaresOn_Sticks_Shell_Hit_FF_D3_RR3.opus
</region>

<region>
hivel=100
key=D#4
lovel=76
offset=751
sample=SnareLine_SnaresOn_Sticks_Shell_Hit_F_D3_RR3.opus
</region>

<region>
hivel=25
key=E4
lovel=0
offset=4576
sample=SnareLine_SnaresOn_Sticks_Buzz_Stroke_P_D3_RR3.opus
</region>

<region>
hivel=50
key=E4
lovel=26
offset=3679
sample=SnareLine_SnaresOn_Sticks_Buzz_Stroke_MP_D3_RR3.opus
</region>

<region>
hivel=75
key=E4
lovel=51
offset=2141
sample=SnareLine_SnaresOn_Sticks_Buzz_Stroke_MF_D3_RR3.opus
</region>

<region>
hivel=127
key=E4
lovel=101
offset=737
sample=SnareLine_SnaresOn_Sticks_Buzz_Stroke_FF_D3_RR3.opus
</region>

<region>
hivel=100
key=E4
lovel=76
offset=2662
sample=SnareLine_SnaresOn_Sticks_Buzz_Stroke_F_D3_RR3.opus
</region>

<region>
hivel=25
key=F4
lovel=0
offset=2696
sample=SnareLine_SnaresOn_Sticks_Dry_Buzz_Stroke_P_D3_RR3.opus
</region>

<region>
hivel=50
key=F4
lovel=26
offset=2831
sample=SnareLine_SnaresOn_Sticks_Dry_Buzz_Stroke_MP_D3_RR3.opus
</region>

<region>
hivel=75
key=F4
lovel=51
offset=2856
sample=SnareLine_SnaresOn_Sticks_Dry_Buzz_Stroke_MF_D3_RR3.opus
</region>

<region>
hivel=127
key=F4
lovel=101
offset=2393
sample=SnareLine_SnaresOn_Sticks_Dry_Buzz_Stroke_FF_D3_RR3.opus
</region>

<region>
hivel=100
key=F4
lovel=76
offset=2090
sample=SnareLine_SnaresOn_Sticks_Dry_Buzz_Stroke_F_D3_RR3.opus
</region>

<region>
hivel=25
key=F#4
lovel=0
offset=6149
sample=SnareLine_SnaresOn_Sticks_Edge_Buzz_Stroke_P_D3_RR3.opus
</region>

<region>
hivel=50
key=F#4
lovel=26
offset=3904
sample=SnareLine_SnaresOn_Sticks_Edge_Buzz_Stroke_MP_D3_RR3.opus
</region>

<region>
hivel=75
key=F#4
lovel=51
offset=5075
sample=SnareLine_SnaresOn_Sticks_Edge_Buzz_Stroke_MF_D3_RR3.opus
</region>

<region>
hivel=127
key=F#4
lovel=101
offset=2652
sample=SnareLine_SnaresOn_Sticks_Edge_Buzz_Stroke_FF_D3_RR3.opus
</region>

<region>
hivel=100
key=F#4
lovel=76
offset=3239
sample=SnareLine_SnaresOn_Sticks_Edge_Buzz_Stroke_F_D3_RR3.opus
</region>

<region>
hivel=25
key=G4
lovel=0
offset=3521
sample=SnareLine_SnaresOn_Sticks_Edge_Dry_Buzz_Stroke_P_D3_RR3.opus
</region>

<region>
hivel=50
key=G4
lovel=26
offset=3517
sample=SnareLine_SnaresOn_Sticks_Edge_Dry_Buzz_Stroke_MP_D3_RR3.opus
</region>

<region>
hivel=75
key=G4
lovel=51
offset=6481
sample=SnareLine_SnaresOn_Sticks_Edge_Dry_Buzz_Stroke_MF_D3_RR3.opus
</region>

<region>
hivel=127
key=G4
lovel=101
offset=3813
sample=SnareLine_SnaresOn_Sticks_Edge_Dry_Buzz_Stroke_FF_D3_RR3.opus
</region>

<region>
hivel=100
key=G4
lovel=76
offset=5083
sample=SnareLine_SnaresOn_Sticks_Edge_Dry_Buzz_Stroke_F_D3_RR3.opus
</region>

<region>
hivel=25
key=G#4
lovel=0
offset=5013
sample=SnareLine_SnaresOn_Sticks_Halfway_Buzz_Stroke_P_D3_RR3.opus
</region>

<region>
hivel=50
key=G#4
lovel=26
offset=4879
sample=SnareLine_SnaresOn_Sticks_Halfway_Buzz_Stroke_MP_D3_RR3.opus
</region>

<region>
hivel=75
key=G#4
lovel=51
offset=4055
sample=SnareLine_SnaresOn_Sticks_Halfway_Buzz_Stroke_MF_D3_RR3.opus
</region>

<region>
hivel=127
key=G#4
lovel=101
offset=2188
sample=SnareLine_SnaresOn_Sticks_Halfway_Buzz_Stroke_FF_D3_RR3.opus
</region>

<region>
hivel=100
key=G#4
lovel=76
offset=2992
sample=SnareLine_SnaresOn_Sticks_Halfway_Buzz_Stroke_F_D3_RR3.opus
</region>

<region>
hivel=25
key=A4
lovel=0
offset=4614
sample=SnareLine_SnaresOn_Sticks_Halfway_Dry_Buzz_Stroke_P_D3_RR3.opus
</region>

<region>
hivel=50
key=A4
lovel=26
offset=5976
sample=SnareLine_SnaresOn_Sticks_Halfway_Dry_Buzz_Stroke_MP_D3_RR3.opus
</region>

<region>
hivel=75
key=A4
lovel=51
offset=4768
sample=SnareLine_SnaresOn_Sticks_Halfway_Dry_Buzz_Stroke_MF_D3_RR3.opus
</region>

<region>
hivel=127
key=A4
lovel=101
offset=3665
sample=SnareLine_SnaresOn_Sticks_Halfway_Dry_Buzz_Stroke_FF_D3_RR3.opus
</region>

<region>
hivel=100
key=A4
lovel=76
offset=3634
sample=SnareLine_SnaresOn_Sticks_Halfway_Dry_Buzz_Stroke_F_D3_RR3.opus
</region>

<region>
hivel=25
key=D5
lovel=0
offset=751
sample=SnareLine_SnaresOn_Sticks_Stick_Shot_P_D3_RR3.opus
</region>

<region>
hivel=50
key=D5
lovel=26
offset=3525
sample=SnareLine_SnaresOn_Sticks_Stick_Shot_MP_D3_RR3.opus
</region>

<region>
hivel=75
key=D5
lovel=51
offset=2704
sample=SnareLine_SnaresOn_Sticks_Stick_Shot_MF_D3_RR3.opus
</region>

<region>
hivel=127
key=D5
lovel=101
offset=1738
sample=SnareLine_SnaresOn_Sticks_Stick_Shot_FF_D3_RR3.opus
</region>

<region>
hivel=100
key=D5
lovel=76
offset=1891
sample=SnareLine_SnaresOn_Sticks_Stick_Shot_F_D3_RR3.opus
</region>

<region>
hivel=25
key=D#5
lovel=0
offset=785
sample=SnareLine_SnaresOn_Sticks_Rim_Knock_P_D3_RR3.opus
</region>

<region>
hivel=50
key=D#5
lovel=26
offset=3376
sample=SnareLine_SnaresOn_Sticks_Rim_Knock_MP_D3_RR3.opus
</region>

<region>
hivel=75
key=D#5
lovel=51
offset=723
sample=SnareLine_SnaresOn_Sticks_Rim_Knock_MF_D3_RR3.opus
</region>

<region>
hivel=127
key=D#5
lovel=101
offset=1130
sample=SnareLine_SnaresOn_Sticks_Rim_Knock_FF_D3_RR3.opus
</region>

<region>
hivel=100
key=D#5
lovel=76
offset=809
sample=SnareLine_SnaresOn_Sticks_Rim_Knock_F_D3_RR3.opus
</region>

<region>
hivel=25
key=E5
lovel=0
offset=1612
sample=SnareLine_SnaresOn_Sticks_Ping_Shot_P_D3_RR3.opus
</region>

<region>
hivel=75
key=E5
lovel=51
offset=601
sample=SnareLine_SnaresOn_Sticks_Ping_Shot_MF_D3_RR3.opus
</region>

<region>
hivel=127
key=E5
lovel=101
offset=1473
sample=SnareLine_SnaresOn_Sticks_Ping_Shot_FF_D3_RR3.opus
</region>

<region>
hivel=100
key=E5
lovel=76
offset=695
sample=SnareLine_SnaresOn_Sticks_Ping_Shot_F_D3_RR3.opus
</region>

<region>
hivel=25
key=F5
lovel=0
offset=1511
sample=SnareLine_SnaresOn_Sticks_Shoulder_Shot_P_D3_RR3.opus
</region>

<region>
hivel=50
key=F5
lovel=26
offset=1355
sample=SnareLine_SnaresOn_Sticks_Shoulder_Shot_MP_D3_RR3.opus
</region>

<region>
hivel=75
key=F5
lovel=51
offset=695
sample=SnareLine_SnaresOn_Sticks_Shoulder_Shot_MF_D3_RR3.opus
</region>

<region>
hivel=127
key=F5
lovel=101
offset=589
sample=SnareLine_SnaresOn_Sticks_Shoulder_Shot_FF_D3_RR3.opus
</region>

<region>
hivel=100
key=F5
lovel=76
offset=573
sample=SnareLine_SnaresOn_Sticks_Shoulder_Shot_F_D3_RR3.opus
</region>

<region>
hivel=25
key=F#5
lovel=0
offset=724
sample=SnareLine_SnaresOn_Sticks_Gok_Shot_P_D3_RR3.opus
</region>

<region>
hivel=50
key=F#5
lovel=26
offset=2246
sample=SnareLine_SnaresOn_Sticks_Gok_Shot_MP_D3_RR3.opus
</region>

<region>
hivel=75
key=F#5
lovel=51
offset=1385
sample=SnareLine_SnaresOn_Sticks_Gok_Shot_MF_D3_RR3.opus
</region>

<region>
hivel=127
key=F#5
lovel=101
offset=1262
sample=SnareLine_SnaresOn_Sticks_Gok_Shot_FF_D3_RR3.opus
</region>

<region>
hivel=100
key=F#5
lovel=76
offset=1331
sample=SnareLine_SnaresOn_Sticks_Gok_Shot_F_D3_RR3.opus
</region>

<region>
hivel=25
key=D6
lovel=0
offset=2424
sample=SnareLine_SnaresOn_Sticks_Backstick_P_D3_RR3.opus
volume=15
</region>

<region>
hivel=50
key=D6
lovel=26
offset=2393
sample=SnareLine_SnaresOn_Sticks_Backstick_MP_D3_RR3.opus
volume=15
</region>

<region>
hivel=75
key=D6
lovel=51
offset=2770
sample=SnareLine_SnaresOn_Sticks_Backstick_MF_D3_RR3.opus
volume=15
</region>

<region>
hivel=127
key=D6
lovel=101
offset=3463
sample=SnareLine_SnaresOn_Sticks_Backstick_FF_D3_RR3.opus
volume=15
</region>

<region>
hivel=100
key=D6
lovel=76
offset=724
sample=SnareLine_SnaresOn_Sticks_Backstick_F_D3_RR3.opus
volume=15
</region>

<region>
hivel=50
key=E5
lovel=26
offset=694
sample=SnareLine_SnaresOn_Sticks_Ping_Shot_MP_D3_RR1.opus
</region>
</group>

<group>
amp_veltrack=0
ampeg_release=0.05
group_label=Rolls_RR1_76-100
loop_mode=loop_continuous
seq_length=2
seq_position=1
xfin_hicc1=100
xfin_locc1=76
xfout_hicc1=124
xfout_locc1=100

<region>
hivel=127
key=D2
loop_end=123286
loop_mode=loop_continuous
loop_start=25673
loop_xfade=11685
lovel=1
offset=728
sample=SnareLine_SnaresOn_Sticks_Buzz_Roll_F_D3_RR1.opus
</region>

<region>
hivel=127
key=D#2
loop_end=124061
loop_mode=loop_continuous
loop_start=25834
loop_xfade=11759
lovel=1
offset=726
sample=SnareLine_SnaresOn_Sticks_Halfway_Buzz_Roll_F_D3_RR1.opus
</region>

<region>
hivel=127
key=E2
loop_end=123107
loop_mode=loop_continuous
loop_start=25635
loop_xfade=11669
lovel=1
offset=792
sample=SnareLine_SnaresOn_Sticks_Edge_Buzz_Roll_F_D3_RR1.opus
</region>

<region>
hivel=127
key=F2
loop_end=121828
loop_mode=loop_continuous
loop_start=25369
loop_xfade=11547
lovel=1
offset=637
sample=SnareLine_SnaresOn_Sticks_Rim_Buzz_Roll_F_D3_RR1.opus
</region>
</group>

<group>
amp_veltrack=0
ampeg_release=0.05
group_label=Rolls_RR1_51-75
loop_mode=loop_continuous
seq_length=2
seq_position=1
xfin_hicc1=75
xfin_locc1=51
xfout_hicc1=99
xfout_locc1=75

<region>
hivel=127
key=D2
loop_end=123576
loop_mode=loop_continuous
loop_start=25733
loop_xfade=11713
lovel=1
offset=740
sample=SnareLine_SnaresOn_Sticks_Buzz_Roll_MF_D3_RR1.opus
</region>

<region>
hivel=127
key=D#2
loop_end=123546
loop_mode=loop_continuous
loop_start=25727
loop_xfade=11710
lovel=1
offset=795
sample=SnareLine_SnaresOn_Sticks_Halfway_Buzz_Roll_MF_D3_RR1.opus
</region>

<region>
hivel=127
key=E2
loop_end=123782
loop_mode=loop_continuous
loop_start=25776
loop_xfade=11733
lovel=1
offset=863
sample=SnareLine_SnaresOn_Sticks_Edge_Buzz_Roll_MF_D3_RR1.opus
</region>

<region>
hivel=127
key=F2
loop_end=123029
loop_mode=loop_continuous
loop_start=25619
loop_xfade=11661
lovel=1
offset=754
sample=SnareLine_SnaresOn_Sticks_Rim_Buzz_Roll_MF_D3_RR1.opus
</region>
</group>

<group>
amp_veltrack=0
ampeg_release=0.05
group_label=Rolls_RR1_101-127
loop_mode=loop_continuous
seq_length=2
seq_position=1
xfin_hicc1=127
xfin_locc1=101
xfout_hicc1=127
xfout_locc1=127

<region>
hivel=127
key=D2
loop_end=122262
loop_mode=loop_continuous
loop_start=25460
loop_xfade=11588
lovel=1
offset=717
sample=SnareLine_SnaresOn_Sticks_Buzz_Roll_FF_D3_RR1.opus
</region>

<region>
hivel=127
key=D#2
loop_end=122838
loop_mode=loop_continuous
loop_start=25579
loop_xfade=11643
lovel=1
offset=738
sample=SnareLine_SnaresOn_Sticks_Halfway_Buzz_Roll_FF_D3_RR1.opus
</region>

<region>
hivel=127
key=E2
loop_end=122788
loop_mode=loop_continuous
loop_start=25569
loop_xfade=11638
lovel=1
offset=641
sample=SnareLine_SnaresOn_Sticks_Edge_Buzz_Roll_FF_D3_RR1.opus
</region>

<region>
hivel=127
key=F2
loop_end=122923
loop_mode=loop_continuous
loop_start=25597
loop_xfade=11651
lovel=1
offset=728
sample=SnareLine_SnaresOn_Sticks_Rim_Buzz_Roll_FF_D3_RR1.opus
</region>
</group>

<group>
amp_veltrack=0
ampeg_release=0.05
group_label=Rolls_RR1_26-50
loop_mode=loop_continuous
seq_length=2
seq_position=1
xfin_hicc1=50
xfin_locc1=26
xfout_hicc1=74
xfout_locc1=50

<region>
hivel=127
key=D2
loop_end=122751
loop_mode=loop_continuous
loop_start=25561
loop_xfade=11635
lovel=1
offset=862
sample=SnareLine_SnaresOn_Sticks_Buzz_Roll_MP_D3_RR1.opus
</region>

<region>
hivel=127
key=D#2
loop_end=122946
loop_mode=loop_continuous
loop_start=25602
loop_xfade=11653
lovel=1
offset=861
sample=SnareLine_SnaresOn_Sticks_Halfway_Buzz_Roll_MP_D3_RR1.opus
</region>

<region>
hivel=127
key=E2
loop_end=122759
loop_mode=loop_continuous
loop_start=25563
loop_xfade=11636
lovel=1
offset=863
sample=SnareLine_SnaresOn_Sticks_Edge_Buzz_Roll_MP_D3_RR1.opus
</region>

<region>
hivel=127
key=F2
loop_end=122871
loop_mode=loop_continuous
loop_start=25586
loop_xfade=11646
lovel=1
offset=771
sample=SnareLine_SnaresOn_Sticks_Rim_Buzz_Roll_MP_D3_RR1.opus
</region>
</group>

<group>
amp_veltrack=0
ampeg_release=0.05
group_label=Rolls_RR1_0-25
loop_mode=loop_continuous
seq_length=2
seq_position=1
xfin_hicc1=25
xfout_hicc1=50
xfout_locc1=25

<region>
hivel=127
key=D2
loop_end=122328
loop_mode=loop_continuous
loop_start=25473
loop_xfade=11595
lovel=1
offset=864
sample=SnareLine_SnaresOn_Sticks_Buzz_Roll_P_D3_RR1.opus
</region>

<region>
hivel=127
key=D#2
loop_end=122098
loop_mode=loop_continuous
loop_start=25425
loop_xfade=11573
lovel=1
offset=863
sample=SnareLine_SnaresOn_Sticks_Halfway_Buzz_Roll_P_D3_RR1.opus
</region>

<region>
hivel=127
key=E2
loop_end=124271
loop_mode=loop_continuous
loop_start=25878
loop_xfade=11779
lovel=1
offset=1959
sample=SnareLine_SnaresOn_Sticks_Edge_Buzz_Roll_P_D3_RR1.opus
</region>

<region>
hivel=127
key=F2
loop_end=121782
loop_mode=loop_continuous
loop_start=25359
loop_xfade=11543
lovel=1
offset=863
sample=SnareLine_SnaresOn_Sticks_Rim_Buzz_Roll_P_D3_RR1.opus
</region>
</group>

<group>
amp_veltrack=0
ampeg_release=0.05
group_label=Rolls_RR2_76-100
loop_mode=loop_continuous
seq_length=2
seq_position=2
xfin_hicc1=100
xfin_locc1=76
xfout_hicc1=124
xfout_locc1=100

<region>
hivel=127
key=D2
loop_end=122853
loop_mode=loop_continuous
loop_start=25583
loop_xfade=11644
lovel=1
offset=737
sample=SnareLine_SnaresOn_Sticks_Buzz_Roll_F_D3_RR2.opus
</region>

<region>
hivel=127
key=D#2
loop_end=123235
loop_mode=loop_continuous
loop_start=25662
loop_xfade=11681
lovel=1
offset=706
sample=SnareLine_SnaresOn_Sticks_Halfway_Buzz_Roll_F_D3_RR2.opus
</region>

<region>
hivel=127
key=E2
loop_end=122867
loop_mode=loop_continuous
loop_start=25586
loop_xfade=11646
lovel=1
offset=706
sample=SnareLine_SnaresOn_Sticks_Edge_Buzz_Roll_F_D3_RR2.opus
</region>

<region>
hivel=127
key=F2
loop_end=123793
loop_mode=loop_continuous
loop_start=25778
loop_xfade=11734
lovel=1
offset=807
sample=SnareLine_SnaresOn_Sticks_Rim_Buzz_Roll_F_D3_RR2.opus
</region>
</group>

<group>
amp_veltrack=0
ampeg_release=0.05
group_label=Rolls_RR2_51-75
loop_mode=loop_continuous
seq_length=2
seq_position=2
xfin_hicc1=75
xfin_locc1=51
xfout_hicc1=99
xfout_locc1=75

<region>
hivel=127
key=D2
loop_end=122883
loop_mode=loop_continuous
loop_start=25589
loop_xfade=11647
lovel=1
offset=742
sample=SnareLine_SnaresOn_Sticks_Buzz_Roll_MF_D3_RR2.opus
</region>

<region>
hivel=127
key=D#2
loop_end=123030
loop_mode=loop_continuous
loop_start=25619
loop_xfade=11661
lovel=1
offset=753
sample=SnareLine_SnaresOn_Sticks_Halfway_Buzz_Roll_MF_D3_RR2.opus
</region>

<region>
hivel=127
key=E2
loop_end=123134
loop_mode=loop_continuous
loop_start=25641
loop_xfade=11671
lovel=1
offset=762
sample=SnareLine_SnaresOn_Sticks_Edge_Buzz_Roll_MF_D3_RR2.opus
</region>

<region>
hivel=127
key=F2
loop_end=122747
loop_mode=loop_continuous
loop_start=25560
loop_xfade=11634
lovel=1
offset=834
sample=SnareLine_SnaresOn_Sticks_Rim_Buzz_Roll_MF_D3_RR2.opus
</region>
</group>

<group>
amp_veltrack=0
ampeg_release=0.05
group_label=Rolls_RR2_101-127
loop_mode=loop_continuous
seq_length=2
seq_position=2
xfin_hicc1=127
xfin_locc1=101
xfout_hicc1=127
xfout_locc1=127

<region>
hivel=127
key=D2
loop_end=122747
loop_mode=loop_continuous
loop_start=25560
loop_xfade=11634
lovel=1
offset=719
sample=SnareLine_SnaresOn_Sticks_Buzz_Roll_FF_D3_RR2.opus
</region>

<region>
hivel=127
key=D#2
loop_end=122516
loop_mode=loop_continuous
loop_start=25512
loop_xfade=11613
lovel=1
offset=718
sample=SnareLine_SnaresOn_Sticks_Halfway_Buzz_Roll_FF_D3_RR2.opus
</region>

<region>
hivel=127
key=E2
loop_end=122489
loop_mode=loop_continuous
loop_start=25507
loop_xfade=11610
lovel=1
offset=815
sample=SnareLine_SnaresOn_Sticks_Edge_Buzz_Roll_FF_D3_RR2.opus
</region>

<region>
hivel=127
key=F2
loop_end=121625
loop_mode=loop_continuous
loop_start=25327
loop_xfade=11528
lovel=1
offset=788
sample=SnareLine_SnaresOn_Sticks_Rim_Buzz_Roll_FF_D3_RR2.opus
</region>
</group>

<group>
amp_veltrack=0
ampeg_release=0.05
group_label=Rolls_RR2_26-50
loop_mode=loop_continuous
seq_length=2
seq_position=2
xfin_hicc1=50
xfin_locc1=26
xfout_hicc1=74
xfout_locc1=50

<region>
hivel=127
key=D2
loop_end=122296
loop_mode=loop_continuous
loop_start=25467
loop_xfade=11592
lovel=1
offset=676
sample=SnareLine_SnaresOn_Sticks_Buzz_Roll_MP_D3_RR2.opus
</region>

<region>
hivel=127
key=D#2
loop_end=122812
loop_mode=loop_continuous
loop_start=25574
loop_xfade=11641
lovel=1
offset=756
sample=SnareLine_SnaresOn_Sticks_Halfway_Buzz_Roll_MP_D3_RR2.opus
</region>

<region>
hivel=127
key=E2
loop_end=122492
loop_mode=loop_continuous
loop_start=25507
loop_xfade=11610
lovel=1
offset=864
sample=SnareLine_SnaresOn_Sticks_Edge_Buzz_Roll_MP_D3_RR2.opus
</region>

<region>
hivel=127
key=F2
loop_end=122591
loop_mode=loop_continuous
loop_start=25528
loop_xfade=11620
lovel=1
offset=751
sample=SnareLine_SnaresOn_Sticks_Rim_Buzz_Roll_MP_D3_RR2.opus
</region>
</group>

<group>
amp_veltrack=0
ampeg_release=0.05
group_label=Rolls_RR2_0-25
loop_mode=loop_continuous
seq_length=2
seq_position=2
xfin_hicc1=25
xfout_hicc1=50
xfout_locc1=25

<region>
hivel=127
key=D2
loop_end=121751
loop_mode=loop_continuous
loop_start=25353
loop_xfade=11540
lovel=1
offset=805
sample=SnareLine_SnaresOn_Sticks_Buzz_Roll_P_D3_RR2.opus
</region>

<region>
hivel=127
key=D#2
loop_end=122458
loop_mode=loop_continuous
loop_start=25500
loop_xfade=11607
lovel=1
offset=863
sample=SnareLine_SnaresOn_Sticks_Halfway_Buzz_Roll_P_D3_RR2.opus
</region>

<region>
hivel=127
key=E2
loop_end=123312
loop_mode=loop_continuous
loop_start=25678
loop_xfade=11688
lovel=1
offset=864
sample=SnareLine_SnaresOn_Sticks_Edge_Buzz_Roll_P_D3_RR2.opus
</region>

<region>
hivel=127
key=F2
loop_end=122118
loop_mode=loop_continuous
loop_start=25429
loop_xfade=11575
lovel=1
offset=863
sample=SnareLine_SnaresOn_Sticks_Rim_Buzz_Roll_P_D3_RR2.opus
</region>
</group>

<group>
amp_veltrack=0
ampeg_attack=0.01
ampeg_release=1.25
group_label=Rolls_RR1_RELEASE_51-75
offset=128000
seq_length=2
seq_position=1
trigger=release
xfin_hicc1=75
xfin_locc1=51
xfout_hicc1=99
xfout_locc1=75

<region>
hivel=127
key=D2
lovel=1
sample=SnareLine_SnaresOn_Sticks_Buzz_Roll_MF_D3_RR1.opus
</region>

<region>
hivel=127
key=D#2
lovel=1
sample=SnareLine_SnaresOn_Sticks_Halfway_Buzz_Roll_MF_D3_RR1.opus
</region>

<region>
hivel=127
key=E2
lovel=1
sample=SnareLine_SnaresOn_Sticks_Edge_Buzz_Roll_MF_D3_RR1.opus
</region>

<region>
hivel=127
key=F2
lovel=1
sample=SnareLine_SnaresOn_Sticks_Rim_Buzz_Roll_MF_D3_RR1.opus
</region>
</group>

<group>
amp_veltrack=0
ampeg_attack=0.01
ampeg_release=1.25
group_label=Rolls_RR1_RELEASE_0-25
offset=128000
seq_length=2
seq_position=1
trigger=release
xfin_hicc1=25
xfout_hicc1=50
xfout_locc1=25

<region>
hivel=127
key=D2
lovel=1
sample=SnareLine_SnaresOn_Sticks_Buzz_Roll_P_D3_RR1.opus
</region>

<region>
hivel=127
key=D#2
lovel=1
sample=SnareLine_SnaresOn_Sticks_Halfway_Buzz_Roll_P_D3_RR1.opus
</region>

<region>
hivel=127
key=E2
lovel=1
sample=SnareLine_SnaresOn_Sticks_Edge_Buzz_Roll_P_D3_RR1.opus
</region>

<region>
hivel=127
key=F2
lovel=1
sample=SnareLine_SnaresOn_Sticks_Rim_Buzz_Roll_P_D3_RR1.opus
</region>
</group>

<group>
amp_veltrack=0
ampeg_attack=0.01
ampeg_release=1.25
group_label=Rolls_RR1_RELEASE_26-50
offset=128000
seq_length=2
seq_position=1
trigger=release
xfin_hicc1=50
xfin_locc1=26
xfout_hicc1=74
xfout_locc1=50

<region>
hivel=127
key=D2
lovel=1
sample=SnareLine_SnaresOn_Sticks_Buzz_Roll_MP_D3_RR1.opus
</region>

<region>
hivel=127
key=D#2
lovel=1
sample=SnareLine_SnaresOn_Sticks_Halfway_Buzz_Roll_MP_D3_RR1.opus
</region>

<region>
hivel=127
key=E2
lovel=1
sample=SnareLine_SnaresOn_Sticks_Edge_Buzz_Roll_MP_D3_RR1.opus
</region>

<region>
hivel=127
key=F2
lovel=1
sample=SnareLine_SnaresOn_Sticks_Rim_Buzz_Roll_MP_D3_RR1.opus
</region>
</group>

<group>
amp_veltrack=0
ampeg_attack=0.01
ampeg_release=1.25
group_label=Rolls_RR1_RELEASE_101-127
offset=128000
seq_length=2
seq_position=1
trigger=release
xfin_hicc1=127
xfin_locc1=101
xfout_hicc1=127
xfout_locc1=127

<region>
hivel=127
key=D2
lovel=1
sample=SnareLine_SnaresOn_Sticks_Buzz_Roll_FF_D3_RR1.opus
</region>

<region>
hivel=127
key=D#2
lovel=1
sample=SnareLine_SnaresOn_Sticks_Halfway_Buzz_Roll_FF_D3_RR1.opus
</region>

<region>
hivel=127
key=E2
lovel=1
sample=SnareLine_SnaresOn_Sticks_Edge_Buzz_Roll_FF_D3_RR1.opus
</region>

<region>
hivel=127
key=F2
lovel=1
sample=SnareLine_SnaresOn_Sticks_Rim_Buzz_Roll_FF_D3_RR1.opus
</region>
</group>

<group>
amp_veltrack=0
ampeg_attack=0.01
ampeg_release=1.25
group_label=Rolls_RR1_RELEASE_76-100
offset=128000
seq_length=2
seq_position=1
trigger=release
xfin_hicc1=100
xfin_locc1=76
xfout_hicc1=124
xfout_locc1=100

<region>
hivel=127
key=D2
lovel=1
sample=SnareLine_SnaresOn_Sticks_Buzz_Roll_F_D3_RR1.opus
</region>

<region>
hivel=127
key=D#2
lovel=1
sample=SnareLine_SnaresOn_Sticks_Halfway_Buzz_Roll_F_D3_RR1.opus
</region>

<region>
hivel=127
key=E2
lovel=1
sample=SnareLine_SnaresOn_Sticks_Edge_Buzz_Roll_F_D3_RR1.opus
</region>

<region>
hivel=127
key=F2
lovel=1
sample=SnareLine_SnaresOn_Sticks_Rim_Buzz_Roll_F_D3_RR1.opus
</region>
</group>

<group>
amp_veltrack=0
ampeg_attack=0.01
ampeg_release=1.25
group_label=Rolls_RR2_RELEASE_51-75
offset=128000
seq_length=2
seq_position=2
trigger=release
xfin_hicc1=75
xfin_locc1=51
xfout_hicc1=99
xfout_locc1=75

<region>
hivel=127
key=D2
lovel=1
sample=SnareLine_SnaresOn_Sticks_Buzz_Roll_MF_D3_RR2.opus
</region>

<region>
hivel=127
key=D#2
lovel=1
sample=SnareLine_SnaresOn_Sticks_Halfway_Buzz_Roll_MF_D3_RR2.opus
</region>

<region>
hivel=127
key=E2
lovel=1
sample=SnareLine_SnaresOn_Sticks_Edge_Buzz_Roll_MF_D3_RR2.opus
</region>

<region>
hivel=127
key=F2
lovel=1
sample=SnareLine_SnaresOn_Sticks_Rim_Buzz_Roll_MF_D3_RR2.opus
</region>
</group>

<group>
amp_veltrack=0
ampeg_attack=0.01
ampeg_release=1.25
group_label=Rolls_RR2_RELEASE_0-25
offset=128000
seq_length=2
seq_position=2
trigger=release
xfin_hicc1=25
xfout_hicc1=50
xfout_locc1=25

<region>
hivel=127
key=D2
lovel=1
sample=SnareLine_SnaresOn_Sticks_Buzz_Roll_P_D3_RR2.opus
</region>

<region>
hivel=127
key=D#2
lovel=1
sample=SnareLine_SnaresOn_Sticks_Halfway_Buzz_Roll_P_D3_RR2.opus
</region>

<region>
hivel=127
key=E2
lovel=1
sample=SnareLine_SnaresOn_Sticks_Edge_Buzz_Roll_P_D3_RR2.opus
</region>

<region>
hivel=127
key=F2
lovel=1
sample=SnareLine_SnaresOn_Sticks_Rim_Buzz_Roll_P_D3_RR2.opus
</region>
</group>

<group>
amp_veltrack=0
ampeg_attack=0.01
ampeg_release=1.25
group_label=Rolls_RR2_RELEASE_26-50
offset=128000
seq_length=2
seq_position=2
trigger=release
xfin_hicc1=50
xfin_locc1=26
xfout_hicc1=74
xfout_locc1=50

<region>
hivel=127
key=D2
lovel=1
sample=SnareLine_SnaresOn_Sticks_Buzz_Roll_MP_D3_RR2.opus
</region>

<region>
hivel=127
key=D#2
lovel=1
sample=SnareLine_SnaresOn_Sticks_Halfway_Buzz_Roll_MP_D3_RR2.opus
</region>

<region>
hivel=127
key=E2
lovel=1
sample=SnareLine_SnaresOn_Sticks_Edge_Buzz_Roll_MP_D3_RR2.opus
</region>

<region>
hivel=127
key=F2
lovel=1
sample=SnareLine_SnaresOn_Sticks_Rim_Buzz_Roll_MP_D3_RR2.opus
</region>
</group>

<group>
amp_veltrack=0
ampeg_attack=0.01
ampeg_release=1.25
group_label=Rolls_RR2_RELEASE_101-127
offset=128000
seq_length=2
seq_position=2
trigger=release
xfin_hicc1=127
xfin_locc1=101
xfout_hicc1=127
xfout_locc1=127

<region>
hivel=127
key=D2
lovel=1
sample=SnareLine_SnaresOn_Sticks_Buzz_Roll_FF_D3_RR2.opus
</region>

<region>
hivel=127
key=D#2
lovel=1
sample=SnareLine_SnaresOn_Sticks_Halfway_Buzz_Roll_FF_D3_RR2.opus
</region>

<region>
hivel=127
key=E2
lovel=1
sample=SnareLine_SnaresOn_Sticks_Edge_Buzz_Roll_FF_D3_RR2.opus
</region>

<region>
hivel=127
key=F2
lovel=1
sample=SnareLine_SnaresOn_Sticks_Rim_Buzz_Roll_FF_D3_RR2.opus
</region>
</group>

<group>
amp_veltrack=0
ampeg_attack=0.01
ampeg_release=1.25
group_label=Rolls_RR2_RELEASE_76-100
offset=128000
seq_length=2
seq_position=2
trigger=release
xfin_hicc1=100
xfin_locc1=76
xfout_hicc1=124
xfout_locc1=100

<region>
hivel=127
key=D2
lovel=1
sample=SnareLine_SnaresOn_Sticks_Buzz_Roll_F_D3_RR2.opus
</region>

<region>
hivel=127
key=D#2
lovel=1
sample=SnareLine_SnaresOn_Sticks_Halfway_Buzz_Roll_F_D3_RR2.opus
</region>

<region>
hivel=127
key=E2
lovel=1
sample=SnareLine_SnaresOn_Sticks_Edge_Buzz_Roll_F_D3_RR2.opus
</region>

<region>
hivel=127
key=F2
lovel=1
sample=SnareLine_SnaresOn_Sticks_Rim_Buzz_Roll_F_D3_RR2.opus
</region>
</group>